<?xml version="1.0" encoding="utf-8"?>
<!-- Generator: Adobe Illustrator 19.0.1, SVG Export Plug-In . SVG Version: 6.00 Build 0)  -->
<svg version="1.1" id="Layer_1" xmlns="http://www.w3.org/2000/svg" xmlns:xlink="http://www.w3.org/1999/xlink" x="0px" y="0px"
	 viewBox="32.6 3.5 80.8 15" style="enable-background:new 32.6 3.5 80.8 15;" xml:space="preserve">
<g>
	<polygon points="43.4,3.5 43.4,11.1 38.2,3.5 32.6,3.5 32.6,18.5 38.2,18.5 38.2,10.9 43.4,18.5 49,18.5 49,3.5 	"/>
	<path d="M108.9,12.9c2-0.6,3.3-2,3.3-4.3c0-3.9-3.1-5.1-7.1-5.1c-2,0-7,0-7,0v15h5.6v-4.7l3.3,4.7h6.4L108.9,12.9z M106.1,9.8
		c-0.3,0.3-1,0.4-1.5,0.4h-1.2v-3h1.2c0.6,0,1.2,0.1,1.5,0.4s0.5,0.6,0.5,1.1C106.6,9.2,106.5,9.6,106.1,9.8z"/>
	<path d="M84.5,3.5h11.3v3.9H90v1.8h5.3v3.7H90v1.7h6v3.9H84.5V3.5z"/>
	<path d="M62.4,3.5H56l-5.9,15h6.2l0.5-2h4.6l0.5,2h6.2L62.4,3.5z M57.8,13.1l1.3-4.9h0.2l1.3,4.9H57.8z"/>
	<polygon points="77.2,3.5 74.4,12.5 74.3,12.5 71.5,3.5 65.4,3.5 71.7,18.5 77,18.5 83.3,3.5 	"/>
</g>
</svg>
